<?xml version="1.0" encoding="UTF-8" standalone="no"?>
<svg
   xmlns:dc="http://purl.org/dc/elements/1.1/"
   xmlns:cc="http://creativecommons.org/ns#"
   xmlns:rdf="http://www.w3.org/1999/02/22-rdf-syntax-ns#"
   xmlns:svg="http://www.w3.org/2000/svg"
   xmlns="http://www.w3.org/2000/svg"
   version="1.1"
   id="svg10"
   xml:space="preserve"
   width="667.57367"
   height="666.66669"
   viewBox="0 0 667.57367 666.66669"><metadata
     id="metadata16"><rdf:RDF><cc:Work
         rdf:about=""><dc:format>image/svg+xml</dc:format><dc:type
           rdf:resource="http://purl.org/dc/dcmitype/StillImage" /><dc:title></dc:title></cc:Work></rdf:RDF></metadata><defs
     id="defs14"><clipPath
       clipPathUnits="userSpaceOnUse"
       id="clipPath28"><path
         d="M 0,500 H 500 V 0 H 0 Z"
         id="path26" /></clipPath><filter
       style="color-interpolation-filters:sRGB"
       id="filter356"><feColorMatrix
         type="hueRotate"
         values="180"
         result="color1"
         id="feColorMatrix352" /><feColorMatrix
         values="-1 0 0 0 1 0 -1 0 0 1 0 0 -1 0 1 -0.21 -0.72 -0.07 2 0 "
         result="color2"
         id="feColorMatrix354" /></filter></defs><g
     id="g18"
     transform="matrix(1.3333333,0,0,-1.3333333,0.45350749,666.66667)"><path
       d="M 0,0 H 500 V 500 H 0 Z"
       style="fill:#e6e7e8;fill-opacity:1;fill-rule:nonzero;stroke:none;filter:url(#filter356)"
       id="path20" /><g
       id="g22"><g
         id="g24"
         clip-path="url(#clipPath28)"><g
           id="g30"
           transform="translate(267.8594,191.9609)"><path
             d="m 0,0 c -2.96,0 -5.328,2.369 -5.328,5.331 0,2.764 2.368,5.134 5.328,5.134 2.763,0 5.132,-2.37 5.132,-5.134 C 5.132,2.369 2.763,0 0,0 m -35.719,0 c -2.763,0 -5.131,2.369 -5.131,5.331 0,2.764 2.368,5.134 5.131,5.134 2.96,0 5.328,-2.37 5.328,-5.134 C -30.391,2.369 -32.759,0 -35.719,0 m 68.084,36.725 c -6.71,0 -12.038,5.331 -12.038,12.044 0,6.712 5.328,12.044 12.038,12.044 6.71,0 12.038,-5.332 12.038,-12.044 0,-6.713 -5.328,-12.044 -12.038,-12.044 m -100.449,0 c -6.709,0 -12.038,5.331 -12.038,12.044 0,6.712 5.329,12.044 12.038,12.044 6.71,0 12.038,-5.332 12.038,-12.044 0,-6.713 -5.328,-12.044 -12.038,-12.044 M -57.033,7.306 c 0,28.629 78.346,28.629 78.346,0 0,-46.4 -78.346,-46.4 -78.346,0 M 29.01,177.304 C 40.062,182.24 96.108,137.223 100.449,126.956 107.159,110.963 53.284,94.772 43.021,94.18 14.604,92.403 14.999,171.38 29.01,177.304 m -93.739,0 c -11.051,4.936 -67.098,-40.081 -71.439,-50.348 -6.71,-15.993 47.166,-32.184 57.625,-32.776 28.22,-1.777 27.825,77.2 13.814,83.124 m 46.968,-238.907 c -61.967,0 -112.093,50.151 -112.093,111.951 0,14.808 2.764,28.826 7.895,41.66 2.368,-1.184 4.539,-2.172 6.709,-2.961 9.473,-3.752 25.458,-9.28 35.72,-10.07 28.615,-1.777 37.496,32.578 39.074,54.889 0.395,6.911 0.395,16.586 -0.986,26.26 7.696,1.58 15.59,2.37 23.681,2.37 7.894,0 15.788,-0.79 23.485,-2.37 -1.382,-9.674 -1.382,-19.349 -0.79,-26.26 1.184,-18.757 6.907,-45.017 26.445,-52.717 3.946,-1.777 8.288,-2.369 12.433,-2.172 10.261,0.79 26.247,6.318 35.718,10.07 2.171,0.789 4.342,1.777 6.71,2.764 5.131,-12.834 7.895,-26.655 7.895,-41.463 0,-61.8 -50.126,-111.951 -111.896,-111.951"
             style="fill:#404040;fill-opacity:1;fill-rule:evenodd;stroke:none"
             id="path32" /></g></g></g><path
       style="fill:#b3b3b3;fill-opacity:1;stroke-width:0.90703"
       d="m 311.11112,490.73449 c -16.33701,-2.58811 -30.56164,-7.275 -45.80499,-15.09234 -40.20392,-20.61802 -68.39662,-57.88966 -78.14227,-103.30654 -1.76148,-8.20891 -2.04363,-12.21622 -2.04363,-29.02494 0,-16.76641 0.28316,-20.80788 2.01922,-28.81945 2.01119,-9.28126 5.87347,-22.36622 7.2045,-24.40802 0.50719,-0.77803 3.45063,0.0164 10.70008,2.88791 13.51764,5.35435 29.82792,10.21216 40.13364,11.95331 15.31366,2.58723 27.13665,-1.1673 37.05123,-11.76601 15.24074,-16.2924 23.59733,-49.31836 21.14862,-83.58115 -0.46138,-6.45587 -0.69979,-11.87705 -0.52977,-12.04706 0.95062,-0.95062 21.56875,-2.93696 30.48559,-2.93696 7.64963,0 25.18414,1.54371 30.42027,2.67814 0.0191,0.004 -0.13109,7.71884 -0.33381,17.14377 -0.59988,27.88984 2.52474,46.19493 10.81875,63.37998 7.6578,15.86679 18.66397,24.95429 33.35771,27.54255 9.69829,1.70832 29.1897,-2.72292 53.67809,-12.20336 7.0807,-2.74122 10.56912,-3.69446 10.97274,-2.99837 1.52267,2.62598 5.52785,16.51389 7.357,25.51032 1.72605,8.48935 2.02019,12.75037 1.97232,28.57143 -0.0474,15.66761 -0.37582,20.09304 -2.08674,28.11791 -13.07158,61.31101 -60.57822,107.54781 -121.13926,117.90123 -12.46478,2.13096 -35.40389,2.37262 -47.23929,0.49765 z m 36.10212,-44.56409 c 20.89374,-4.63644 35.3781,-18.98204 38.05842,-37.6938 1.28058,-8.93999 0.35322,-14.36362 -3.26768,-19.11094 -5.5669,-7.29869 -12.29132,-11.12861 -26.44841,-15.0638 -7.763,-2.15784 -36.68146,-2.15784 -44.44445,0 -14.15709,3.93519 -20.88151,7.76511 -26.44842,15.0638 -7.92649,10.39233 -3.15153,32.1799 9.65001,44.03188 12.86822,11.91369 33.89431,16.99046 52.90053,12.77286 z m -72.86807,-86.06352 c 7.26042,-3.75452 10.39505,-14.36916 6.49877,-22.0065 -5.55987,-10.89823 -21.1712,-11.71727 -28.18672,-1.47878 -5.96556,8.70616 -1.38512,21.6135 8.83155,24.88669 3.1962,1.02398 9.49364,0.33754 12.8564,-1.40141 z m 135.26541,-0.87295 c 7.08571,-4.6891 9.20728,-15.59494 4.39888,-22.61233 -6.94915,-10.14164 -22.62488,-9.4233 -28.08894,1.28715 -2.09338,4.10336 -2.33375,10.54153 -0.54988,14.7281 3.78383,8.88026 15.83408,12.15982 24.23994,6.59708 z"
       id="path358"
       transform="matrix(0.75000002,0,0,-0.75000002,0,500.00002)" /><path
       style="fill:#b3b3b3;fill-opacity:1;stroke-width:0.90703"
       d="m 237.42726,281.66084 c -12.73325,-3.38471 -31.97862,-10.68001 -40.97307,-15.53155 -19.12782,-10.31742 -24.79313,-18.85339 -18.36533,-27.6712 10.60999,-14.55504 55.47456,-49.67965 76.10164,-59.58019 16.21389,-7.78232 21.05457,-5.30517 25.73246,13.16823 2.64924,10.46208 3.3707,37.14882 1.36106,50.34515 -2.77492,18.22158 -8.91219,32.04499 -17.17824,38.69182 -5.0601,4.06888 -12.90575,4.23879 -26.67852,0.57774 z"
       id="path360"
       transform="matrix(0.75000002,0,0,-0.75000002,0,500.00002)" /><path
       style="fill:#b3b3b3;fill-opacity:1;stroke-width:0.90703"
       d="m 404.89827,282.54789 c -9.45835,-4.99912 -17.18614,-21.70878 -19.84447,-42.9093 -0.50974,-4.0653 -0.9268,-13.14656 -0.9268,-20.18058 0,-20.37753 3.57603,-36.77903 9.25776,-42.46075 2.32908,-2.32909 3.09697,-2.57075 6.98225,-2.19742 12.98035,1.24724 50.87966,26.71022 76.63424,51.48736 14.91495,14.3489 16.78085,18.40734 11.81967,25.70837 -6.62376,9.74775 -32.64022,22.63528 -59.86557,29.65504 -12.18904,3.14281 -19.30627,3.40827 -24.05708,0.89728 z"
       id="path362"
       transform="matrix(0.75000002,0,0,-0.75000002,0,500.00002)" /><path
       style="fill:#b3b3b3;fill-opacity:1;stroke-width:0.90703"
       d="m 305.79126,408.55096 c -4.83519,-3.80336 -2.12926,-11.12086 4.11237,-11.12086 5.66899,0 8.11245,6.63177 3.96981,10.77441 -2.71985,2.71984 -4.9437,2.81517 -8.08218,0.34645 z"
       id="path364"
       transform="matrix(0.75000002,0,0,-0.75000002,0,500.00002)" /><path
       style="fill:#b3b3b3;fill-opacity:1;stroke-width:0.90703"
       d="m 352.79325,408.20451 c -4.14264,-4.14264 -1.69918,-10.77441 3.96981,-10.77441 6.24163,0 8.94755,7.3175 4.11236,11.12086 -3.13847,2.46872 -5.36232,2.37339 -8.08217,-0.34645 z"
       id="path366"
       transform="matrix(0.75000002,0,0,-0.75000002,0,500.00002)" /></g><path
     style="fill:#000000;stroke:#000000;stroke-width:0.90703"
     d="M 0.45350749,333.33334 V 0.45350849 H 333.78685 667.12019 V 333.33334 666.21317 H 333.78685 0.45350749 Z M 363.71882,490.27977 c 29.07151,-6.21108 55.118,-20.26966 75.71598,-40.86763 39.45326,-39.45327 53.70561,-97.16834 37.17629,-150.54592 -1.46758,-4.73923 -2.99323,-9.11115 -3.39031,-9.71538 -0.53372,-0.81212 -3.77845,0.0741 -12.44271,3.39831 -25.25733,9.69055 -43.46868,13.72023 -53.28129,11.78972 -21.8188,-4.29259 -35.77997,-24.08759 -41.60307,-58.98739 -1.12239,-6.7268 -1.66688,-35.21979 -0.84065,-43.99093 l 0.42719,-4.53515 -6.32288,-1.21757 c -8.62271,-1.66042 -42.22901,-1.64526 -50.76734,0.0229 -4.74788,0.92761 -6.26863,1.57783 -6.02973,2.57811 1.02481,4.29074 1.15121,32.45211 0.18298,40.76678 -1.62281,13.93592 -5.67024,28.8314 -10.5755,38.92037 -3.38107,6.95406 -5.55118,10.02466 -10.69005,15.12594 -10.29055,10.21526 -19.61496,13.35446 -33.78069,11.37278 -11.12967,-1.55696 -32.84888,-8.22485 -46.85649,-14.38513 -3.09844,-1.36264 -5.57397,-1.97378 -6.03205,-1.48914 -1.30307,1.3786 -6.15624,17.58587 -7.71526,25.76527 -16.0567,84.24118 39.54786,163.53948 124.33362,177.3136 12.0271,1.9539 40.52322,1.23755 52.49197,-1.31955 z M 262.45628,283.51241 c 12.02005,-6.13217 19.74704,-26.1965 21.5077,-55.848 1.34967,-22.73013 -3.93131,-48.09354 -10.97454,-52.70843 -5.59633,-3.66687 -17.64632,0.99383 -38.52233,14.89967 -24.33313,16.20869 -53.94922,42.03632 -58.14794,50.70974 -1.74146,3.59735 -1.83379,4.44432 -0.8445,7.74627 3.39141,11.31953 29.45723,25.47775 63.07408,34.26006 11.94234,3.1199 19.08502,3.40094 23.90753,0.94069 z m 162.16202,0.32516 c 24.15724,-5.60244 52.01659,-17.89099 61.56921,-27.15773 9.31352,-9.03477 8.74715,-13.81905 -3.0903,-26.105 -18.88859,-19.60425 -54.07792,-45.68858 -72.66636,-53.86446 -12.38883,-5.44905 -17.50993,-3.69748 -21.71651,7.42776 -3.55141,9.39244 -4.82137,18.72743 -4.87261,35.81652 -0.0822,27.42011 4.93395,47.13059 14.87607,58.45405 5.82458,6.63383 13.64064,8.27212 25.9005,5.42886 z"
     id="path23" /><path
     style="fill:#000000;stroke:#000000;stroke-width:0.90703"
     d="m 260.22773,359.72297 c -9.67545,-4.39406 -11.89861,-17.27354 -4.29424,-24.87791 6.12055,-6.12055 15.71837,-6.23175 21.69872,-0.25139 7.65532,7.65532 5.61644,19.8902 -4.13557,24.81677 -4.88642,2.46855 -8.34227,2.54994 -13.26891,0.31253 z"
     id="path25" /><path
     style="fill:#000000;stroke:#000000;stroke-width:0.90703"
     d="m 394.07707,359.41044 c -16.47864,-8.32475 -7.50083,-33.22567 10.35791,-28.72879 14.01087,3.52798 15.97359,23.109 2.911,29.04132 -4.92665,2.23741 -8.3825,2.15602 -13.26891,-0.31253 z"
     id="path27" /><path
     style="fill:#000000;stroke:#000000;stroke-width:0.90703"
     d="m 318.25186,444.91726 c -19.92475,-5.22381 -33.22426,-19.06926 -35.74037,-37.2075 -1.29162,-9.31113 -0.0681,-14.10737 5.05138,-19.80146 4.71379,-5.24287 11.97392,-9.28574 21.76603,-12.12063 6.41478,-1.85712 9.1557,-2.09151 24.45795,-2.09151 15.30225,0 18.04318,0.23439 24.45795,2.09151 9.79212,2.83489 17.05223,6.87776 21.76603,12.12063 5.11947,5.69409 6.34301,10.49033 5.05138,19.80146 -3.22997,23.28444 -24.21301,39.10984 -51.64721,38.95233 -5.4306,-0.0312 -11.1271,-0.68668 -15.16314,-1.74483 z m -2.98723,-35.912 c 3.582,-3.24167 2.09354,-10.38967 -2.47119,-11.8673 -5.20873,-1.6861 -8.86633,0.46009 -9.94093,5.83308 -0.47867,2.39334 -0.10989,3.31249 2.29314,5.71552 2.40304,2.40304 3.32219,2.77181 5.71553,2.29315 1.5686,-0.31372 3.55015,-1.20222 4.40345,-1.97445 z m 47.26954,-0.42481 c 2.29905,-2.29905 2.6626,-3.23152 2.18703,-5.60941 -1.10708,-5.53536 -5.26663,-7.77475 -10.41798,-5.60877 -5.46841,2.29929 -5.26373,10.85175 0.31382,13.11255 3.30803,1.34088 5.11401,0.90875 7.91713,-1.89437 z"
     id="path29" /><path
     style="fill:#000000;stroke:#000000;stroke-width:0.907646"
     d="M 0.45382311,333.787 V 0.45382311 H 333.78701 667.12018 V 333.787 667.12018 H 333.78701 0.45382311 Z M 355.4177,492.23901 c 12.94711,-1.76695 30.43305,-7.19623 43.67764,-13.56168 14.69931,-7.0646 26.87094,-15.90144 39.97258,-29.02094 21.80168,-21.83139 34.46506,-45.19398 41.38986,-76.35987 1.75007,-7.87633 2.0181,-11.73653 2.01822,-29.06447 10e-5,-17.30783 -0.27161,-21.23052 -2.03039,-29.31283 -2.25358,-10.35623 -6.26873,-23.82164 -7.48627,-25.10646 -0.47056,-0.49655 -6.00884,1.05384 -13.74444,3.84763 -26.58387,9.60105 -42.47068,13.03455 -51.56398,11.14418 -17.20563,-3.57681 -29.23598,-16.14439 -36.59499,-38.22916 -5.03225,-15.10207 -6.15208,-23.74549 -6.25457,-48.27616 l -0.0898,-21.48234 -3.21739,-0.53035 c -11.85012,-1.95335 -28.2172,-2.58919 -40.01201,-1.5544 -6.84559,0.60057 -13.81625,1.47066 -15.49035,1.93354 l -3.04383,0.84157 -0.0356,22.04544 c -0.0311,19.29178 -0.28673,23.20127 -2.04662,31.2992 -2.4058,11.07009 -6.55896,23.24323 -10.47742,30.70986 -4.02489,7.66942 -13.28027,16.69804 -21.03594,20.52056 -5.87091,2.89357 -6.83846,3.08887 -14.91278,3.01015 -11.53726,-0.11251 -31.38056,-5.31179 -50.55485,-13.24628 -3.6004,-1.48987 -7.27387,-2.57412 -8.16326,-2.40945 -1.92457,0.35634 -5.62572,10.98362 -8.64495,24.82256 -1.70991,7.83759 -1.98154,11.88402 -1.98154,29.5186 0,17.7707 0.2644,21.65003 2.02736,29.7448 4.35737,20.00726 11.4938,37.00628 22.57976,53.78514 9.13281,13.8227 26.62751,31.50251 39.90086,40.32303 20.83623,13.84626 44.745,22.81066 66.93701,25.09747 7.20169,0.74212 32.15567,0.42803 38.87758,-0.48934 z M 259.66425,284.7946 c 10.34116,-2.78837 18.62278,-17.67364 22.26431,-40.01755 2.21855,-13.61268 2.67009,-24.16659 1.5299,-35.75881 -1.21753,-12.3786 -1.28176,-12.76572 -3.23214,-19.48396 -4.90088,-16.88141 -9.75357,-18.84373 -26.41709,-10.68245 -14.98822,7.34077 -37.25091,23.22953 -57.5978,41.10724 -11.89465,10.45118 -17.73102,16.83164 -19.9474,21.80694 -1.59451,3.57933 -1.60674,4.01743 -0.20974,7.51363 4.51835,11.30786 30.17099,25.0397 62.59512,33.50718 11.01721,2.87711 16.01862,3.35495 21.01484,2.00778 z m 173.89595,-3.0904 c 22.83787,-6.66963 42.85915,-16.19406 52.1524,-24.8097 9.99743,-9.26847 9.28586,-13.66835 -4.45064,-27.51968 -19.01222,-19.17117 -48.36914,-41.14404 -67.4972,-50.51985 -14.08594,-6.90439 -19.40885,-6.29106 -23.6694,2.72727 -7.06131,14.94672 -8.59077,44.25388 -3.5807,68.61268 3.52287,17.12807 9.42309,27.9038 17.94822,32.77933 4.16789,2.38364 5.20343,2.58943 11.39867,2.26523 4.15898,-0.21764 11.05561,-1.59523 17.69865,-3.53528 z"
     id="path28" /><path
     style="fill:#000000;stroke:#000000;stroke-width:0.907029"
     d="m 260.08186,359.53731 c -5.21208,-2.57992 -7.70895,-6.31873 -8.20366,-12.28408 -0.48795,-5.88404 0.8462,-9.40992 4.911,-12.97887 8.26896,-7.26024 20.54739,-4.32609 24.42899,5.83774 2.8759,7.53044 -0.52445,15.8083 -7.97533,19.41521 -5.01049,2.42554 -8.27604,2.42802 -13.161,0.01 z"
     id="path30" /><path
     style="fill:#000000;stroke:#000000;stroke-width:0.907029"
     d="m 394.02021,359.34288 c -9.58468,-5.05514 -11.56625,-16.68611 -4.17753,-24.52044 5.65088,-5.99167 14.47877,-6.22271 20.94181,-0.54808 4.06481,3.56895 5.39895,7.09483 4.911,12.97887 -0.49811,6.0065 -3.28604,10.17018 -8.34952,12.46974 -4.96751,2.25597 -8.51982,2.15465 -13.32576,-0.38009 z"
     id="path33" /><path
     style="fill:#000000;stroke:#000000;stroke-width:0.907029"
     d="m 319.72789,445.29699 c -12.26728,-2.64422 -24.7295,-10.83284 -30.73902,-20.19787 -6.6111,-10.3025 -8.85468,-25.02672 -4.93011,-32.35535 3.70988,-6.92772 11.94913,-12.7347 23.42424,-16.50927 6.906,-2.27163 8.17559,-2.38684 26.30385,-2.38684 18.12826,0 19.39785,0.11521 26.30385,2.38684 15.09823,4.96635 23.8533,12.88165 25.44241,23.002 0.72132,4.59381 -1.68005,15.77065 -4.73905,22.05726 -3.50574,7.2047 -11.98789,15.32254 -20.24984,19.38011 -11.54789,5.67135 -27.54645,7.48345 -40.81633,4.62312 z m -7.37244,-34.96155 c 4.85753,-1.69334 6.16184,-6.80998 2.81922,-11.05943 -3.41947,-4.34714 -9.81388,-3.14639 -11.67497,2.19233 -1.3699,3.9297 -1.37207,3.92112 1.78549,7.07868 3.15672,3.15671 3.15003,3.15502 7.07026,1.78842 z m 48.03913,-0.28073 c 3.93509,-2.03491 5.10906,-5.01592 3.49584,-8.87688 -1.84544,-4.41677 -5.68054,-5.75438 -9.62354,-3.3565 -1.57061,0.95514 -3.19364,2.6503 -3.60674,3.76701 -1.05624,2.85528 0.55893,6.82835 3.40432,8.37411 3.02699,1.64443 3.32028,1.64871 6.33012,0.0923 z"
     id="path35" /></svg>